<svg width="360" height="49" viewBox="0 0 360 49" fill="none" xmlns="http://www.w3.org/2000/svg">
<path d="M360 5L0 24.8413V28H360V5Z" fill="#051222"/>
<rect y="26" width="360" height="23" fill="#051222"/>
<circle cx="180" cy="15" r="15" fill="white"/>
<path d="M175.251 12.7384L180.006 17.35L184.762 12.7384C184.875 12.6283 185.01 12.5411 185.158 12.4815C185.306 12.4219 185.465 12.3913 185.626 12.3913C185.786 12.3913 185.945 12.4219 186.093 12.4815C186.242 12.5411 186.376 12.6283 186.49 12.7384C186.603 12.8484 186.693 12.9791 186.755 13.1228C186.816 13.2666 186.848 13.4207 186.848 13.5763C186.848 13.7319 186.816 13.886 186.755 14.0298C186.693 14.1736 186.603 14.3042 186.49 14.4142L180.864 19.8697C180.386 20.3333 179.614 20.3333 179.136 19.8697L173.51 14.4142C173.397 14.3043 173.307 14.1737 173.245 14.0299C173.184 13.8861 173.152 13.732 173.152 13.5763C173.152 13.4207 173.184 13.2665 173.245 13.1227C173.307 12.9789 173.397 12.8483 173.51 12.7384C173.988 12.2867 174.773 12.2748 175.251 12.7384Z" fill="#051222"/>
</svg>
