<svg width="1440" height="101" viewBox="0 0 1440 101" fill="none" xmlns="http://www.w3.org/2000/svg">
<path d="M1440 0L0 87.1293V101H1440V0Z" fill="#051222"/>
<circle cx="720" cy="43" r="23" fill="white"/>
<path d="M712.718 39.5322L720.01 46.6033L727.301 39.5322C727.475 39.3635 727.682 39.2296 727.909 39.1383C728.137 39.047 728.38 39 728.626 39C728.872 39 729.116 39.047 729.343 39.1383C729.571 39.2296 729.777 39.3635 729.951 39.5322C730.125 39.7009 730.263 39.9012 730.357 40.1217C730.452 40.3421 730.5 40.5784 730.5 40.817C730.5 41.0556 730.452 41.2919 730.357 41.5124C730.263 41.7328 730.125 41.9331 729.951 42.1019L721.325 50.4669C720.592 51.1777 719.408 51.1777 718.676 50.4669L710.05 42.1019C709.875 41.9333 709.737 41.733 709.643 41.5125C709.549 41.2921 709.5 41.0557 709.5 40.817C709.5 40.5783 709.549 40.342 709.643 40.1215C709.737 39.9011 709.875 39.7008 710.05 39.5322C710.783 38.8397 711.985 38.8214 712.718 39.5322Z" fill="#051222"/>
</svg>
