<svg width="40" height="40" viewBox="0 0 40 40" fill="none" xmlns="http://www.w3.org/2000/svg">
<path d="M40 20C40 31.0457 31.0457 40 20 40C8.9543 40 0 31.0457 0 20C0 8.9543 8.9543 0 20 0C31.0457 0 40 8.9543 40 20Z" fill="#E52C21"/>
<path d="M19.9747 13.4543C19.508 13.0338 18.987 12.688 18.4129 12.4198C17.5478 11.9954 16.6206 11.7843 15.6428 11.7843C13.7426 11.7843 12.1336 12.2515 10.9257 13.2924L11.5017 13.9608L10.9257 13.2924C9.7003 14.3484 9.11765 15.7984 9.11765 17.5294V25.6078C9.11765 26.228 9.36625 26.7829 9.87299 27.1711C10.3432 27.5313 10.9152 27.6667 11.5017 27.6667C12.0882 27.6667 12.6602 27.5313 13.1304 27.1711L13.1326 27.1694C13.6296 26.7862 13.9085 26.2442 13.9085 25.6078V17.5294C13.9085 16.6266 14.1074 16.1987 14.292 16.0112L14.2921 16.0113L14.3012 16.0018C14.4844 15.81 14.8907 15.6078 15.7565 15.6078C16.4454 15.6078 16.8698 15.8 17.1505 16.0873C17.4355 16.3789 17.6273 16.8209 17.6273 17.5294V25.6078C17.6273 26.2089 17.8533 26.7606 18.3407 27.1559L18.3502 27.1636L18.3599 27.1711C18.8302 27.5313 19.4021 27.6667 19.9886 27.6667C20.5751 27.6667 21.1471 27.5313 21.6173 27.1711C22.1241 26.7829 22.3727 26.228 22.3727 25.6078V17.5294C22.3727 16.7822 22.5639 16.3411 22.8235 16.071C23.1003 15.7981 23.5321 15.6078 24.2435 15.6078C25.1093 15.6078 25.5156 15.81 25.6988 16.0018L25.6988 16.0018L25.708 16.0112C25.8926 16.1987 26.0915 16.6266 26.0915 17.5294V25.6078C26.0915 26.228 26.3401 26.7829 26.8468 27.1711C27.3171 27.5313 27.8891 27.6667 28.4755 27.6667C29.062 27.6667 29.634 27.5313 30.1043 27.1711L30.1065 27.1694C30.6035 26.7862 30.8824 26.2442 30.8824 25.6078V17.5294C30.8824 15.7984 30.2997 14.3484 29.0743 13.2924C27.8664 12.2515 26.2574 11.7843 24.3572 11.7843C23.3556 11.7843 22.4087 11.9861 21.5276 12.3961L21.5276 12.3961L21.5214 12.399C20.9501 12.6703 20.4342 13.0234 19.9747 13.4543Z" fill="white" stroke="white" stroke-width="1.76471"/>
</svg>
