<svg width="295" height="42" viewBox="0 0 295 42" fill="none" xmlns="http://www.w3.org/2000/svg">
<path d="M271.856 34.1468L271.867 34.1546L271.879 34.1622C273.994 35.5584 276.466 36.222 279.217 36.222C281.967 36.222 284.432 35.5586 286.531 34.1568L286.531 34.1569L286.538 34.1522C288.623 32.7458 290.186 30.8098 291.234 28.4047L291.234 28.4047L291.237 28.3974C292.272 25.9922 292.767 23.286 292.767 20.3144C292.767 17.3447 292.273 14.6494 291.236 12.2667C290.19 9.83967 288.627 7.89798 286.534 6.51341C284.436 5.08475 281.97 4.40667 279.217 4.40667C276.459 4.40667 273.984 5.08662 271.867 6.51344C269.793 7.89967 268.242 9.84225 267.197 12.2669C266.16 14.6496 265.666 17.3448 265.666 20.3144C265.666 23.286 266.161 25.9922 267.196 28.3974L267.196 28.3975L267.199 28.4047C268.245 30.8043 269.794 32.7391 271.856 34.1468ZM283.296 14.0448L283.296 14.0448L283.304 14.0551C284.371 15.4262 285.011 17.444 285.011 20.3144C285.011 23.1648 284.4 25.2023 283.371 26.61C282.411 27.8988 281.101 28.5628 279.217 28.5628C277.332 28.5628 276.022 27.8988 275.062 26.61C274.033 25.2023 273.422 23.1648 273.422 20.3144C273.422 17.5056 274.006 15.4767 274.995 14.0597C275.936 12.7136 277.173 12.0659 278.901 12.0659C280.923 12.0659 282.307 12.7544 283.296 14.0448Z" fill="white" stroke="white" stroke-width="3.53504"/>
<path d="M218.744 34.0209L218.781 34.0544L218.82 34.0857C219.702 34.7927 220.766 35.0765 221.863 35.0765C222.955 35.0765 224.03 34.7943 224.902 34.0558C225.828 33.2723 226.239 32.1969 226.239 31.0505V16.8596C226.239 13.0967 224.984 9.96249 222.344 7.69035C219.74 5.45 216.25 4.43951 212.099 4.43951C207.948 4.43951 204.458 5.45 201.855 7.69035L203.008 9.03015L201.855 7.69035C199.214 9.96249 197.959 13.0967 197.959 16.8596V31.0505C197.959 32.1969 198.371 33.2723 199.296 34.0558C200.169 34.7943 201.243 35.0765 202.336 35.0765C203.428 35.0765 204.502 34.7943 205.375 34.0559L205.379 34.0521C206.288 33.2783 206.752 32.228 206.752 31.0505V16.7467C206.752 14.955 207.25 13.8518 208.007 13.1466C208.781 12.4257 210.048 11.9269 212.099 11.9269C214.151 11.9269 215.418 12.4257 216.191 13.1466C216.949 13.8518 217.447 14.955 217.447 16.7467V31.0505C217.447 32.1942 217.872 33.2364 218.744 34.0209Z" fill="white" stroke="white" stroke-width="3.53504"/>
<path d="M5.85435 7.46045L5.85435 7.46045C3.39964 9.57584 2.23248 12.4805 2.23248 15.948V32.1307C2.23248 33.3729 2.73047 34.4845 3.74558 35.2621C4.68758 35.9836 5.83337 36.2549 7.0082 36.2549C8.18303 36.2549 9.32882 35.9836 10.2708 35.2621L10.2753 35.2586C11.2708 34.491 11.8295 33.4054 11.8295 32.1307V15.948C11.8295 14.1394 12.2278 13.2824 12.5977 12.9068L12.6069 12.8974L12.616 12.8879C12.9831 12.5038 13.797 12.0988 15.5314 12.0988C16.9113 12.0988 17.7615 12.4838 18.3238 13.0591C18.8947 13.6434 19.279 14.5288 19.279 15.948V32.1307C19.279 33.3346 19.7317 34.4399 20.7079 35.2317L20.727 35.2471L20.7465 35.2621C21.6885 35.9836 22.8343 36.2549 24.0091 36.2549C25.1839 36.2549 26.3297 35.9836 27.2717 35.2621C28.2868 34.4845 28.7848 33.3729 28.7848 32.1307V15.948C28.7848 14.4512 29.1678 13.5676 29.6879 13.0266C30.2425 12.4798 31.1074 12.0988 32.5323 12.0988C34.2668 12.0988 35.0807 12.5038 35.4477 12.8879L35.4568 12.8974L35.4661 12.9068C35.8359 13.2824 36.2343 14.1394 36.2343 15.948V32.1307C36.2343 33.3729 36.7323 34.4845 37.7474 35.2621C38.6894 35.9836 39.8352 36.2549 41.01 36.2549C42.1848 36.2549 43.3306 35.9836 44.2726 35.2621L44.2771 35.2586C45.2726 34.491 45.8313 33.4054 45.8313 32.1307V15.948C45.8313 12.4805 44.6641 9.57584 42.2094 7.46045C39.7898 5.37534 36.5666 4.43951 32.7602 4.43951C30.7538 4.43951 28.8569 4.84373 27.092 5.66504L27.092 5.66499L27.0796 5.67089C25.9352 6.2143 24.9018 6.92161 23.9811 7.7847C23.0463 6.94243 22.0026 6.24976 20.8527 5.71253C19.1196 4.86238 17.2623 4.43951 15.3035 4.43951C11.4972 4.43951 8.27394 5.37534 5.85435 7.46045Z" fill="white" stroke="white" stroke-width="3.53504"/>
<rect x="-0.00332942" y="0.83321" width="11.0757" height="43.5366" rx="5.53786" transform="matrix(-0.709927 0.704276 0.704276 0.709927 91.0722 0.559344)" fill="white" stroke="white" stroke-width="1.17835"/>
<rect x="114.46" y="1.14852" width="11.0757" height="43.5366" rx="5.53786" transform="rotate(44.7711 114.46 1.14852)" fill="white" stroke="white" stroke-width="1.17835"/>
<rect x="125.975" y="3.26117" width="11.7835" height="34.1721" rx="5.89173" fill="white" stroke="white" stroke-width="1.17835"/>
<rect x="143.65" y="3.26117" width="11.7835" height="34.1721" rx="5.89173" fill="white" stroke="white" stroke-width="1.17835"/>
<rect x="109.478" y="15.0447" width="11.7835" height="54.2039" rx="5.89173" transform="rotate(-90 109.478 15.0447)" fill="white" stroke="white" stroke-width="1.17835"/>
<mask id="path-9-outside-1_103_115" maskUnits="userSpaceOnUse" x="230.132" y="1.11615" width="32" height="38" fill="black">
<rect fill="white" x="230.132" y="1.11615" width="32" height="38"/>
<path d="M259.191 29.5808C259.088 31.1729 258.379 32.7052 257.068 33.6142C256.293 34.1518 255.476 34.6102 254.528 34.9648C252.767 35.6093 250.934 35.9315 249.029 35.9315C247.568 35.9315 246.157 35.7382 244.797 35.3515C243.451 34.9791 242.19 34.4492 241.016 33.7618C239.842 33.06 238.767 32.2294 237.794 31.2698C236.82 30.296 235.989 29.2219 235.302 28.0475C234.614 26.8588 234.077 25.5842 233.69 24.2236C233.318 22.8631 233.132 21.4524 233.132 19.9916C233.132 18.5308 233.318 17.1273 233.69 15.7811C234.077 14.4348 234.614 13.1745 235.302 12.0002C235.989 10.8115 236.82 9.73736 237.794 8.77782C238.767 7.80395 239.842 6.9733 241.016 6.28587C242.19 5.59843 243.451 5.06853 244.797 4.69617C246.157 4.30949 247.568 4.11615 249.029 4.11615C250.934 4.11615 252.767 4.44555 254.528 5.10434C255.677 5.52473 256.474 6.28278 257.286 7.09697C258.071 7.88383 258.305 9.10311 257.808 10.0973C257.068 11.5781 254.934 11.9756 253.279 11.9437C253.119 11.9406 252.947 11.9392 252.763 11.9392C251.585 12.0002 250.375 12.0002 249.029 12.0002C247.683 12.0002 247.46 11.9392 245.104 11.9392C243.336 11.9392 243.021 12.2293 242.133 13.1173C241.245 13.9909 240.543 15.022 240.028 16.2107C239.512 17.3851 239.254 18.6454 239.254 19.9916C239.254 21.3522 239.512 22.6268 240.028 23.8155C240.543 25.0042 241.245 26.0425 242.133 26.9304C243.021 27.8183 244.052 28.5201 245.226 29.0357C246.415 29.5513 247.907 29.842 249.253 29.842C250.027 29.842 250.753 29.6852 251.483 29.499C252.689 29.1916 253.368 27.9702 253.368 26.7256V22.9818H256.298H259.319V27.6125L259.191 29.5808Z"/>
</mask>
<path d="M259.191 29.5808C259.088 31.1729 258.379 32.7052 257.068 33.6142C256.293 34.1518 255.476 34.6102 254.528 34.9648C252.767 35.6093 250.934 35.9315 249.029 35.9315C247.568 35.9315 246.157 35.7382 244.797 35.3515C243.451 34.9791 242.19 34.4492 241.016 33.7618C239.842 33.06 238.767 32.2294 237.794 31.2698C236.82 30.296 235.989 29.2219 235.302 28.0475C234.614 26.8588 234.077 25.5842 233.69 24.2236C233.318 22.8631 233.132 21.4524 233.132 19.9916C233.132 18.5308 233.318 17.1273 233.69 15.7811C234.077 14.4348 234.614 13.1745 235.302 12.0002C235.989 10.8115 236.82 9.73736 237.794 8.77782C238.767 7.80395 239.842 6.9733 241.016 6.28587C242.19 5.59843 243.451 5.06853 244.797 4.69617C246.157 4.30949 247.568 4.11615 249.029 4.11615C250.934 4.11615 252.767 4.44555 254.528 5.10434C255.677 5.52473 256.474 6.28278 257.286 7.09697C258.071 7.88383 258.305 9.10311 257.808 10.0973C257.068 11.5781 254.934 11.9756 253.279 11.9437C253.119 11.9406 252.947 11.9392 252.763 11.9392C251.585 12.0002 250.375 12.0002 249.029 12.0002C247.683 12.0002 247.46 11.9392 245.104 11.9392C243.336 11.9392 243.021 12.2293 242.133 13.1173C241.245 13.9909 240.543 15.022 240.028 16.2107C239.512 17.3851 239.254 18.6454 239.254 19.9916C239.254 21.3522 239.512 22.6268 240.028 23.8155C240.543 25.0042 241.245 26.0425 242.133 26.9304C243.021 27.8183 244.052 28.5201 245.226 29.0357C246.415 29.5513 247.907 29.842 249.253 29.842C250.027 29.842 250.753 29.6852 251.483 29.499C252.689 29.1916 253.368 27.9702 253.368 26.7256V22.9818H256.298H259.319V27.6125L259.191 29.5808Z" fill="white"/>
<path d="M254.528 34.9648L255.35 37.2103L255.358 37.2074L255.366 37.2044L254.528 34.9648ZM244.797 35.3515L245.45 33.0515L245.442 33.0492L245.434 33.0469L244.797 35.3515ZM241.016 33.7618L239.789 35.8143L239.799 35.8199L239.808 35.8253L241.016 33.7618ZM237.794 31.2698L236.103 32.9606L236.109 32.9668L236.115 32.9731L237.794 31.2698ZM235.302 28.0475L233.232 29.2445L233.238 29.2554L235.302 28.0475ZM233.69 24.2236L231.384 24.8548L231.387 24.8661L231.39 24.8773L233.69 24.2236ZM233.69 15.7811L231.392 15.121L231.389 15.1323L231.386 15.1436L233.69 15.7811ZM235.302 12.0002L237.365 13.2081L237.371 13.1972L235.302 12.0002ZM237.794 8.77782L239.472 10.481L239.478 10.4748L239.484 10.4686L237.794 8.77782ZM244.797 4.69617L245.434 7.00072L245.442 6.99847L245.45 6.99616L244.797 4.69617ZM254.528 5.10434L253.691 7.34392L253.699 7.34692L253.707 7.34985L254.528 5.10434ZM252.763 11.9392V9.54809H252.701L252.639 9.55129L252.763 11.9392ZM242.133 13.1173L243.81 14.8217L243.817 14.8149L243.824 14.808L242.133 13.1173ZM240.028 16.2107L242.217 17.1719L242.221 17.1622L240.028 16.2107ZM245.226 29.0357L244.265 31.2251L244.275 31.2293L245.226 29.0357ZM253.368 22.9818V20.5907H250.977V22.9818H253.368ZM259.319 22.9818H261.71V20.5907H259.319V22.9818ZM259.319 27.6125L261.705 27.7674L261.71 27.69V27.6125H259.319ZM257.286 7.09697L258.979 5.40812L257.286 7.09697ZM259.191 29.5808L256.805 29.4259L259.191 29.5808ZM255.706 31.6493C255.06 32.0974 254.418 32.4531 253.691 32.7252L255.366 37.2044C256.535 36.7673 257.526 36.2062 258.431 35.5792L255.706 31.6493ZM253.707 32.7193C252.213 33.266 250.658 33.5404 249.029 33.5404V38.3226C251.209 38.3226 253.321 37.9526 255.35 37.2103L253.707 32.7193ZM249.029 33.5404C247.782 33.5404 246.592 33.3758 245.45 33.0515L244.143 37.6515C245.723 38.1006 247.354 38.3226 249.029 38.3226V33.5404ZM245.434 33.0469C244.283 32.7284 243.215 32.2782 242.224 31.6983L239.808 35.8253C241.166 36.6202 242.619 37.2299 244.159 37.656L245.434 33.0469ZM242.242 31.7093C241.232 31.1054 240.309 30.392 239.472 29.5666L236.115 32.9731C237.225 34.0668 238.451 35.0147 239.789 35.8143L242.242 31.7093ZM239.484 29.5791C238.653 28.7478 237.948 27.8356 237.365 26.8396L233.238 29.2554C234.03 30.6081 234.986 31.8441 236.103 32.9606L239.484 29.5791ZM237.371 26.8505C236.786 25.8378 236.325 24.7463 235.99 23.5699L231.39 24.8773C231.829 26.4221 232.443 27.8798 233.232 29.2445L237.371 26.8505ZM235.997 23.5924C235.683 22.4448 235.523 21.2468 235.523 19.9916H230.741C230.741 21.658 230.954 23.2814 231.384 24.8548L235.997 23.5924ZM235.523 19.9916C235.523 18.7363 235.683 17.5478 235.995 16.4185L231.386 15.1436C230.954 16.7068 230.741 18.3253 230.741 19.9916H235.523ZM235.989 16.4412C236.322 15.281 236.781 14.2054 237.365 13.2081L233.238 10.7922C232.447 12.1437 231.832 13.5887 231.392 15.121L235.989 16.4412ZM237.371 13.1972C237.952 12.1932 238.651 11.2895 239.472 10.481L236.115 7.07459C234.988 8.18522 234.026 9.42975 233.232 10.8031L237.371 13.1972ZM239.484 10.4686C240.316 9.6373 241.228 8.93245 242.224 8.3494L239.808 4.22233C238.455 5.01416 237.219 5.9706 236.103 7.08707L239.484 10.4686ZM242.224 8.3494C243.215 7.76945 244.283 7.31929 245.434 7.00072L244.159 2.39162C242.619 2.81778 241.166 3.42742 239.808 4.22233L242.224 8.3494ZM245.45 6.99616C246.592 6.67188 247.782 6.50723 249.029 6.50723V1.72507C247.354 1.72507 245.723 1.94711 244.143 2.39618L245.45 6.99616ZM249.029 6.50723C250.651 6.50723 252.201 6.78661 253.691 7.34392L255.366 2.86475C253.333 2.10448 251.216 1.72507 249.029 1.72507V6.50723ZM253.707 7.34985C254.309 7.5701 254.778 7.96842 255.593 8.78583L258.979 5.40812C258.17 4.59713 257.046 3.47937 255.35 2.85882L253.707 7.34985ZM253.325 9.55305C253.147 9.54961 252.96 9.54809 252.763 9.54809V14.3302C252.935 14.3302 253.091 14.3316 253.233 14.3343L253.325 9.55305ZM252.639 9.55129C251.534 9.60851 250.388 9.60909 249.029 9.60909V14.3913C250.362 14.3913 251.635 14.3918 252.887 14.327L252.639 9.55129ZM249.029 9.60909C248.398 9.60909 248.045 9.59521 247.515 9.57962C246.976 9.56374 246.307 9.54809 245.104 9.54809V14.3302C246.257 14.3302 246.878 14.3451 247.375 14.3597C247.882 14.3746 248.313 14.3913 249.029 14.3913V9.60909ZM245.104 9.54809C244.151 9.54809 243.205 9.61346 242.313 10.0122C241.43 10.4067 240.826 11.0432 240.442 11.4265L243.824 14.808C244.06 14.5714 244.171 14.465 244.256 14.3936C244.317 14.3428 244.309 14.358 244.264 14.3783C244.193 14.41 244.289 14.3302 245.104 14.3302V9.54809ZM240.456 11.4128C239.34 12.5105 238.467 13.8002 237.834 15.2593L242.221 17.1622C242.62 16.2438 243.15 15.4712 243.81 14.8217L240.456 11.4128ZM237.838 15.2495C237.183 16.7419 236.863 18.3312 236.863 19.9916H241.645C241.645 18.9595 241.841 18.0283 242.217 17.1719L237.838 15.2495ZM236.863 19.9916C236.863 21.6628 237.182 23.263 237.834 24.7669L242.221 22.864C241.843 21.9906 241.645 21.0415 241.645 19.9916H236.863ZM237.834 24.7669C238.465 26.2225 239.335 27.5138 240.442 28.6212L243.824 25.2397C243.155 24.5711 242.621 23.7858 242.221 22.864L237.834 24.7669ZM240.442 28.6212C241.545 29.7237 242.825 30.5926 244.265 31.2251L246.188 26.8463C245.279 26.4476 244.497 25.913 243.824 25.2397L240.442 28.6212ZM244.275 31.2293C245.789 31.8858 247.608 32.2331 249.253 32.2331V27.451C248.207 27.451 247.042 27.2167 246.178 26.842L244.275 31.2293ZM249.253 32.2331C250.34 32.2331 251.306 32.0117 252.074 31.816L250.892 27.182C250.199 27.3587 249.714 27.451 249.253 27.451V32.2331ZM255.759 26.7256V22.9818H250.977V26.7256H255.759ZM253.368 25.3729H256.298V20.5907H253.368V25.3729ZM256.298 25.3729H259.319V20.5907H256.298V25.3729ZM256.928 22.9818V27.6125H261.71V22.9818H256.928ZM256.933 27.4575L256.805 29.4259L261.577 29.7358L261.705 27.7674L256.933 27.4575ZM252.074 31.816C254.67 31.1542 255.759 28.6797 255.759 26.7256H250.977C250.977 26.9306 250.918 27.091 250.866 27.1721C250.843 27.2074 250.831 27.2139 250.84 27.2069C250.852 27.1977 250.873 27.187 250.892 27.182L252.074 31.816ZM255.669 9.02798C255.69 8.98763 255.634 9.14991 255.123 9.3218C254.629 9.48825 253.974 9.56559 253.325 9.55305L253.233 14.3343C254.239 14.3537 255.479 14.2483 256.65 13.8538C257.805 13.4647 259.186 12.6878 259.947 11.1666L255.669 9.02798ZM255.593 8.78583C255.635 8.8274 255.664 8.88405 255.674 8.94097C255.684 8.99471 255.673 9.0212 255.669 9.02798L259.947 11.1666C260.933 9.19401 260.443 6.87522 258.979 5.40812L255.593 8.78583ZM258.431 35.5792C260.464 34.1695 261.437 31.8927 261.577 29.7358L256.805 29.4259C256.738 30.453 256.295 31.2408 255.706 31.6493L258.431 35.5792Z" fill="white" mask="url(#path-9-outside-1_103_115)"/>
<path d="M255.819 8.29317C255.059 7.93784 256.57 7.79228 255.746 7.62493C255.155 7.50486 254.622 7.25681 254.042 7.12133C252.803 6.83192 251.648 6.32052 250.368 6.09477C249.568 5.95368 248.766 5.98824 247.954 5.98824C247.151 5.98824 246.076 5.80915 245.327 6.08025C244.536 6.36639 242.72 5.53977 242 5.98824C241.253 6.45351 239.778 7.68249 239.125 8.29317C237.952 9.38887 236.679 10.5292 235.482 11.5859C234.683 12.291 234.661 13.7279 234 14.5C233.319 15.2959 234.513 15.8038 233.923 16.6219C233.627 17.0306 233.44 17.5264 233.156 17.9487C232.872 18.3692 233.04 19.3351 233.156 19.7936C233.49 21.1231 234.233 22.3179 234.555 23.6722C235.085 25.9026 235.712 28.4344 237.487 30.0931C237.753 30.3412 237.986 30.6585 238.244 30.9211C238.44 31.1211 238.573 31.3022 238.752 31.5167C238.836 31.6181 239.108 31.7542 239.125 31.8751C239.158 32.1233 240.089 32.1418 240.316 32.2237C240.953 32.4536 240.892 32.8741 241.565 33C241.918 33.066 241.642 33.9595 242 34C242.404 34.0457 244 34 244.394 33.4004C245.396 33.6723 244.942 35 246 35C248.035 35 250.29 37.2109 252 36C252.775 35.4516 254.92 35.2511 255.5 34.5C255.929 33.9445 258.068 31.4757 258.5 30.9308C259.19 30.0606 258.873 28.2949 259.11 27.2507C259.325 26.3057 258.561 25.187 258.824 24.2533C259.028 23.5297 259.256 23.4584 258.244 23.3139C257.033 23.1411 255.842 23.159 254.617 23.159C254.125 23.159 253.691 23.1854 253.213 23.2413C252.77 23.293 252.905 23.8012 253.228 24.0306C253.765 24.4115 253.225 25.9589 253.213 26.5C253.183 27.8705 252.631 28.9731 251.524 29.8268C250.263 30.7989 248.108 30.8238 246.575 30.6015C245.068 30.3829 243.718 29.6975 242.555 28.8051C241.08 27.6733 239.964 26.1333 239.197 24.5051C238.63 23.3014 238.658 22.0988 238.658 20.8201C238.658 20.1729 238.658 19.5256 238.658 18.8784C238.658 17.9517 238.778 17.2604 239.104 16.3798C239.595 15.0531 240.538 13.7832 241.529 12.7384C241.894 12.3536 242.23 11.8087 242.741 11.5859C243.23 11.3726 243.721 11.3922 244.249 11.3922C246.66 11.3922 249.071 11.3922 251.482 11.3922C252.498 11.3922 253.493 11.1475 254.493 11.0048C254.888 10.9484 255.401 10.9499 255.726 10.6901C256.347 10.1922 256.812 9.6866 257.125 8.97108C257.503 8.10587 257.581 6.83825 256.658 6.21583C256.317 5.98538 255.88 5.88766 255.487 5.7655C254.855 5.5684 254.282 5.26537 253.627 5.12147C252.713 4.92053 249.437 4 248.5 4C246.749 4 246.991 3.99969 245.327 4.5C243.056 5.18287 241.722 8.12676 239.923 9.51342C238.113 10.9077 236.759 12.9274 235.549 14.777C234.789 15.94 234.311 17.3012 234.202 18.6653C234.077 20.2403 234.295 21.726 234.72 23.2461C235.21 24.9976 236.614 26.0914 238 27.2507C238.611 27.7613 239.306 28.1945 239.964 28.6501C240.495 29.018 240.976 29.495 241.565 29.7832C242.402 30.1928 243.309 30.4537 244.156 30.8388C245.069 31.2539 245.939 31.7193 246.886 32.0687C249.052 32.8676 250.84 32.3604 252.617 30.9308C253.798 29.9806 254.886 28.9405 255.819 27.7785" stroke="white" stroke-width="3" stroke-linecap="round"/>
<path d="M60.7237 6.00155C62.1037 2.91189 65.7272 1.526 68.8168 2.90607C71.9065 4.28614 73.2924 7.90957 71.9123 10.9992L61.1767 35.0336C59.7967 38.1232 56.1732 39.5091 53.0836 38.1291C49.9939 36.749 48.608 33.1256 49.9881 30.0359L60.7237 6.00155Z" fill="white"/>
<path d="M72.4514 5.66412C71.1196 2.55336 67.5181 1.11123 64.4074 2.44303C61.2966 3.77483 59.8545 7.37625 61.1863 10.487L71.6312 34.8837C72.963 37.9945 76.5644 39.4366 79.6752 38.1048C82.7859 36.773 84.2281 33.1716 82.8963 30.0609L72.4514 5.66412Z" fill="white"/>
<rect x="173.941" y="1.85709" width="11.0757" height="36.1395" rx="5.53786" transform="rotate(24.0691 173.941 1.85709)" fill="white" stroke="white" stroke-width="1.17835"/>
<rect x="-0.30974" y="0.773506" width="11.0757" height="36.1441" rx="5.53786" transform="matrix(-0.919293 0.393574 0.393574 0.919293 179.562 0.887458)" fill="white" stroke="white" stroke-width="1.17835"/>
<circle cx="131.923" cy="9.09642" r="7.62697" fill="#E91E1E" stroke="#193983" stroke-width="2.17913"/>
</svg>
