<svg width="295" height="42" viewBox="0 0 295 42" fill="none" xmlns="http://www.w3.org/2000/svg">
<path d="M271.855 34.1468L271.867 34.1546L271.878 34.1622C273.994 35.5584 276.465 36.2221 279.216 36.2221C281.966 36.2221 284.432 35.5586 286.531 34.1569L286.531 34.1569L286.537 34.1523C288.622 32.7458 290.186 30.8099 291.234 28.4047L291.234 28.4047L291.237 28.3975C292.272 25.9922 292.767 23.2861 292.767 20.3144C292.767 17.3448 292.273 14.6495 291.235 12.2667C290.19 9.83971 288.627 7.89801 286.534 6.51344C284.436 5.08479 281.969 4.40671 279.216 4.40671C276.459 4.40671 273.983 5.08665 271.867 6.51347C269.793 7.8997 268.241 9.84229 267.197 12.2669C266.159 14.6497 265.665 17.3449 265.665 20.3144C265.665 23.2861 266.16 25.9922 267.195 28.3975L267.195 28.3975L267.199 28.4047C268.244 30.8044 269.793 32.7392 271.855 34.1468ZM283.296 14.0448L283.296 14.0449L283.304 14.0552C284.371 15.4262 285.01 17.4441 285.01 20.3144C285.01 23.1648 284.399 25.2023 283.37 26.61C282.411 27.8989 281.101 28.5628 279.216 28.5628C277.331 28.5628 276.022 27.8989 275.062 26.61C274.033 25.2023 273.422 23.1648 273.422 20.3144C273.422 17.5056 274.006 15.4767 274.994 14.0598C275.935 12.7136 277.173 12.066 278.901 12.066C280.923 12.066 282.306 12.7544 283.296 14.0448Z" fill="white" stroke="white" stroke-width="3.53504"/>
<path d="M218.744 34.021L218.781 34.0544L218.82 34.0857C219.702 34.7928 220.766 35.0766 221.863 35.0766C222.955 35.0766 224.03 34.7944 224.902 34.0559C225.828 33.2723 226.239 32.1969 226.239 31.0505V16.8596C226.239 13.0968 224.984 9.96252 222.344 7.69038C219.74 5.45003 216.25 4.43954 212.099 4.43954C207.948 4.43954 204.458 5.45003 201.855 7.69038L203.007 9.03018L201.855 7.69038C199.214 9.96252 197.959 13.0968 197.959 16.8596V31.0505C197.959 32.1969 198.37 33.2723 199.296 34.0559C200.169 34.7944 201.243 35.0766 202.335 35.0766C203.428 35.0766 204.502 34.7944 205.375 34.0559L205.379 34.0522C206.287 33.2783 206.751 32.228 206.751 31.0505V16.7467C206.751 14.955 207.25 13.8519 208.007 13.1466C208.781 12.4257 210.048 11.927 212.099 11.927C214.151 11.927 215.417 12.4257 216.191 13.1466C216.948 13.8519 217.447 14.955 217.447 16.7467V31.0505C217.447 32.1943 217.872 33.2364 218.744 34.021Z" fill="white" stroke="white" stroke-width="3.53504"/>
<path d="M5.85435 7.46048L5.85435 7.46049C3.39964 9.57587 2.23248 12.4805 2.23248 15.9481V32.1307C2.23248 33.3729 2.73047 34.4845 3.74558 35.2621C4.68758 35.9837 5.83337 36.2549 7.0082 36.2549C8.18303 36.2549 9.32882 35.9837 10.2708 35.2621L10.2753 35.2587C11.2708 34.4911 11.8295 33.4054 11.8295 32.1307V15.9481C11.8295 14.1395 12.2278 13.2824 12.5977 12.9068L12.6069 12.8974L12.616 12.8879C12.9831 12.5038 13.797 12.0988 15.5314 12.0988C16.9113 12.0988 17.7615 12.4838 18.3238 13.0592C18.8947 13.6434 19.279 14.5289 19.279 15.9481V32.1307C19.279 33.3346 19.7317 34.4399 20.7079 35.2317L20.727 35.2472L20.7465 35.2621C21.6885 35.9837 22.8343 36.2549 24.0091 36.2549C25.1839 36.2549 26.3297 35.9837 27.2717 35.2621C28.2868 34.4845 28.7848 33.3729 28.7848 32.1307V15.9481C28.7848 14.4513 29.1678 13.5676 29.6879 13.0267C30.2425 12.4798 31.1074 12.0988 32.5323 12.0988C34.2668 12.0988 35.0807 12.5038 35.4477 12.8879L35.4568 12.8974L35.4661 12.9068C35.8359 13.2824 36.2343 14.1395 36.2343 15.9481V32.1307C36.2343 33.3729 36.7323 34.4845 37.7474 35.2621C38.6894 35.9837 39.8352 36.2549 41.01 36.2549C42.1848 36.2549 43.3306 35.9837 44.2726 35.2621L44.2771 35.2587C45.2726 34.4911 45.8313 33.4054 45.8313 32.1307V15.9481C45.8313 12.4805 44.6641 9.57587 42.2094 7.46048C39.7898 5.37537 36.5666 4.43954 32.7602 4.43954C30.7538 4.43954 28.8569 4.84376 27.092 5.66507L27.092 5.66502L27.0796 5.67092C25.9352 6.21433 24.9018 6.92164 23.9811 7.78473C23.0463 6.94246 22.0026 6.24979 20.8527 5.71256C19.1196 4.86241 17.2623 4.43954 15.3035 4.43954C11.4972 4.43954 8.27394 5.37537 5.85435 7.46048Z" fill="white" stroke="white" stroke-width="3.53504"/>
<rect x="-0.00332942" y="0.83321" width="11.0757" height="43.5366" rx="5.53786" transform="matrix(-0.709927 0.704276 0.704276 0.709927 91.0716 0.559314)" fill="white" stroke="white" stroke-width="1.17835"/>
<rect x="114.46" y="1.14849" width="11.0757" height="43.5366" rx="5.53786" transform="rotate(44.7711 114.46 1.14849)" fill="white" stroke="white" stroke-width="1.17835"/>
<rect x="125.975" y="3.26117" width="11.7835" height="34.1721" rx="5.89173" fill="white" stroke="white" stroke-width="1.17835"/>
<rect x="143.651" y="3.26117" width="11.7835" height="34.1721" rx="5.89173" fill="white" stroke="white" stroke-width="1.17835"/>
<rect x="109.478" y="15.0447" width="11.7835" height="54.2039" rx="5.89173" transform="rotate(-90 109.478 15.0447)" fill="white" stroke="white" stroke-width="1.17835"/>
<mask id="path-9-outside-1_149_216" maskUnits="userSpaceOnUse" x="231.132" y="2.11615" width="31" height="36" fill="black">
<rect fill="white" x="231.132" y="2.11615" width="31" height="36"/>
<path d="M259.191 29.5808C259.088 31.1729 258.379 32.7052 257.068 33.6142C256.293 34.1518 255.476 34.6102 254.528 34.9648C252.767 35.6093 250.934 35.9315 249.029 35.9315C247.568 35.9315 246.157 35.7382 244.797 35.3515C243.451 34.9791 242.19 34.4492 241.016 33.7618C239.841 33.06 238.767 32.2294 237.794 31.2698C236.82 30.296 235.989 29.2219 235.302 28.0475C234.614 26.8588 234.077 25.5842 233.69 24.2236C233.318 22.8631 233.132 21.4524 233.132 19.9916C233.132 18.5308 233.318 17.1273 233.69 15.7811C234.077 14.4348 234.614 13.1745 235.302 12.0002C235.989 10.8115 236.82 9.73736 237.794 8.77782C238.767 7.80395 239.841 6.9733 241.016 6.28587C242.19 5.59843 243.451 5.06853 244.797 4.69617C246.157 4.30949 247.568 4.11615 249.029 4.11615C250.934 4.11615 252.767 4.44555 254.528 5.10434C255.677 5.52473 256.474 6.28278 257.286 7.09697C258.071 7.88383 258.305 9.10311 257.808 10.0973V10.0973C257.068 11.5781 254.934 11.9756 253.279 11.9437C253.119 11.9406 252.947 11.9392 252.763 11.9392C251.584 12.0002 250.375 12.0002 249.029 12.0002C247.683 12.0002 247.46 11.9392 245.104 11.9392C243.336 11.9392 243.021 12.2293 242.133 13.1173C241.245 13.9909 240.543 15.022 240.028 16.2107C239.512 17.3851 239.254 18.6454 239.254 19.9916C239.254 21.3522 239.512 22.6268 240.028 23.8155C240.543 25.0042 241.245 26.0425 242.133 26.9304C243.021 27.8183 244.052 28.5201 245.226 29.0357C246.415 29.5513 247.907 29.842 249.253 29.842C250.027 29.842 250.753 29.6852 251.483 29.499V29.499C252.689 29.1916 253.368 27.9702 253.368 26.7256V22.9818H256.298H259.319V27.6125L259.191 29.5808Z"/>
</mask>
<path d="M259.191 29.5808C259.088 31.1729 258.379 32.7052 257.068 33.6142C256.293 34.1518 255.476 34.6102 254.528 34.9648C252.767 35.6093 250.934 35.9315 249.029 35.9315C247.568 35.9315 246.157 35.7382 244.797 35.3515C243.451 34.9791 242.19 34.4492 241.016 33.7618C239.841 33.06 238.767 32.2294 237.794 31.2698C236.82 30.296 235.989 29.2219 235.302 28.0475C234.614 26.8588 234.077 25.5842 233.69 24.2236C233.318 22.8631 233.132 21.4524 233.132 19.9916C233.132 18.5308 233.318 17.1273 233.69 15.7811C234.077 14.4348 234.614 13.1745 235.302 12.0002C235.989 10.8115 236.82 9.73736 237.794 8.77782C238.767 7.80395 239.841 6.9733 241.016 6.28587C242.19 5.59843 243.451 5.06853 244.797 4.69617C246.157 4.30949 247.568 4.11615 249.029 4.11615C250.934 4.11615 252.767 4.44555 254.528 5.10434C255.677 5.52473 256.474 6.28278 257.286 7.09697C258.071 7.88383 258.305 9.10311 257.808 10.0973V10.0973C257.068 11.5781 254.934 11.9756 253.279 11.9437C253.119 11.9406 252.947 11.9392 252.763 11.9392C251.584 12.0002 250.375 12.0002 249.029 12.0002C247.683 12.0002 247.46 11.9392 245.104 11.9392C243.336 11.9392 243.021 12.2293 242.133 13.1173C241.245 13.9909 240.543 15.022 240.028 16.2107C239.512 17.3851 239.254 18.6454 239.254 19.9916C239.254 21.3522 239.512 22.6268 240.028 23.8155C240.543 25.0042 241.245 26.0425 242.133 26.9304C243.021 27.8183 244.052 28.5201 245.226 29.0357C246.415 29.5513 247.907 29.842 249.253 29.842C250.027 29.842 250.753 29.6852 251.483 29.499V29.499C252.689 29.1916 253.368 27.9702 253.368 26.7256V22.9818H256.298H259.319V27.6125L259.191 29.5808Z" fill="white"/>
<path d="M254.528 34.9648L255.215 36.843L255.222 36.8406L255.229 36.8381L254.528 34.9648ZM244.797 35.3515L245.344 33.4276L245.33 33.4239L244.797 35.3515ZM241.016 33.7618L239.99 35.4786L239.998 35.4833L240.005 35.4878L241.016 33.7618ZM237.794 31.2698L236.379 32.6841L236.385 32.6893L236.39 32.6945L237.794 31.2698ZM235.302 28.0475L233.57 29.0487L233.576 29.0578L235.302 28.0475ZM233.69 24.2236L231.761 24.7516L231.764 24.761L231.767 24.7704L233.69 24.2236ZM233.69 15.7811L231.768 15.2289L231.765 15.2384L231.763 15.2479L233.69 15.7811ZM235.302 12.0002L237.028 13.0105L237.033 13.0014L235.302 12.0002ZM237.794 8.77782L239.197 10.2025L239.202 10.1973L239.208 10.192L237.794 8.77782ZM244.797 4.69617L245.33 6.62384L245.344 6.61998L244.797 4.69617ZM254.528 5.10434L253.828 6.97762L253.834 6.98013L253.841 6.98258L254.528 5.10434ZM252.763 11.9392V9.93917H252.711L252.659 9.94184L252.763 11.9392ZM242.133 13.1173L243.536 14.5429L243.541 14.5372L243.547 14.5315L242.133 13.1173ZM240.028 16.2107L241.859 17.0147L241.863 17.0065L240.028 16.2107ZM245.226 29.0357L244.422 30.867L244.431 30.8705L245.226 29.0357ZM253.368 22.9818V20.9818H251.368V22.9818H253.368ZM259.319 22.9818H261.319V20.9818H259.319V22.9818ZM259.319 27.6125L261.315 27.7421L261.319 27.6773V27.6125H259.319ZM257.286 7.09697L258.702 5.68434L257.286 7.09697ZM259.191 29.5808L257.195 29.4512L259.191 29.5808ZM255.929 31.9707C255.261 32.4334 254.591 32.8059 253.828 33.0915L255.229 36.8381C256.362 36.4145 257.325 35.8702 258.208 35.2578L255.929 31.9707ZM253.841 33.0866C252.303 33.6492 250.703 33.9315 249.029 33.9315V37.9315C251.164 37.9315 253.23 37.5693 255.215 36.843L253.841 33.0866ZM249.029 33.9315C247.747 33.9315 246.52 33.7622 245.344 33.4277L244.25 37.2753C245.794 37.7142 247.389 37.9315 249.029 37.9315V33.9315ZM245.33 33.4239C244.146 33.0965 243.047 32.6333 242.026 32.0358L240.005 35.4878C241.333 36.2652 242.755 36.8617 244.264 37.2791L245.33 33.4239ZM242.042 32.045C241.004 31.4251 240.057 30.6925 239.197 29.8452L236.39 32.6945C237.478 33.7662 238.679 34.695 239.99 35.4786L242.042 32.045ZM239.208 29.8556C238.353 29.001 237.628 28.0623 237.028 27.0371L233.576 29.0578C234.35 30.3814 235.286 31.5909 236.379 32.6841L239.208 29.8556ZM237.033 27.0462C236.431 26.0048 235.957 24.8833 235.614 23.6769L231.767 24.7704C232.197 26.285 232.798 27.7128 233.57 29.0487L237.033 27.0462ZM235.619 23.6957C235.296 22.5132 235.132 21.2804 235.132 19.9916H231.132C231.132 21.6244 231.34 23.213 231.761 24.7516L235.619 23.6957ZM235.132 19.9916C235.132 18.7027 235.296 17.479 235.618 16.3142L231.763 15.2479C231.34 16.7756 231.132 18.3589 231.132 19.9916H235.132ZM235.613 16.3332C235.955 15.1426 236.427 14.0368 237.028 13.0105L233.576 10.9898C232.801 12.3123 232.199 13.7271 231.768 15.2289L235.613 16.3332ZM237.033 13.0014C237.631 11.9672 238.352 11.0356 239.197 10.2025L236.39 7.35317C235.288 8.43908 234.347 9.65574 233.57 10.9989L237.033 13.0014ZM239.208 10.192C240.062 9.33744 241.001 8.61201 242.026 8.0119L240.005 4.55984C238.682 5.33459 237.472 6.27046 236.379 7.36361L239.208 10.192ZM242.026 8.0119C243.047 7.41436 244.146 6.95116 245.33 6.6238L244.264 2.76855C242.755 3.18591 241.333 3.7825 240.005 4.55984L242.026 8.0119ZM245.344 6.61998C246.52 6.28549 247.747 6.11615 249.029 6.11615V2.11615C247.389 2.11615 245.794 2.33349 244.25 2.77236L245.344 6.61998ZM249.029 6.11615C250.697 6.11615 252.293 6.40371 253.828 6.97762L255.229 3.23105C253.24 2.48738 251.17 2.11615 249.029 2.11615V6.11615ZM253.841 6.98258C254.533 7.23556 255.055 7.69272 255.87 8.5096L258.702 5.68434C257.892 4.87283 256.822 3.8139 255.215 3.22609L253.841 6.98258ZM253.318 9.94406C253.142 9.94067 252.957 9.93917 252.763 9.93917V13.9392C252.937 13.9392 253.096 13.9405 253.241 13.9433L253.318 9.94406ZM252.659 9.94184C251.542 9.99969 250.386 10.0002 249.029 10.0002V14.0002C250.364 14.0002 251.627 14.0007 252.866 13.9365L252.659 9.94184ZM249.029 10.0002C248.391 10.0002 248.032 9.98606 247.504 9.97053C246.968 9.95476 246.303 9.93917 245.104 9.93917V13.9392C246.261 13.9392 246.886 13.9541 247.386 13.9688C247.895 13.9838 248.32 14.0002 249.029 14.0002V10.0002ZM245.104 9.93917C244.162 9.93917 243.286 10.0057 242.472 10.3692C241.667 10.7293 241.112 11.3098 240.719 11.703L243.547 14.5315C244.042 14.0368 244.089 14.0282 244.104 14.0212C244.112 14.0177 244.278 13.9392 245.104 13.9392V9.93917ZM240.73 11.6916C239.652 12.7527 238.806 14.0001 238.193 15.4149L241.863 17.0065C242.28 16.044 242.838 15.2291 243.536 14.5429L240.73 11.6916ZM238.196 15.4067C237.564 16.8471 237.254 18.3826 237.254 19.9916H241.254C241.254 18.9081 241.46 17.9231 241.859 17.0147L238.196 15.4067ZM237.254 19.9916C237.254 21.612 237.563 23.1589 238.193 24.6113L241.863 23.0196C241.461 22.0946 241.254 21.0923 241.254 19.9916H237.254ZM238.193 24.6113C238.805 26.0232 239.647 27.2732 240.719 28.3446L243.547 25.5162C242.843 24.8118 242.281 23.9851 241.863 23.0196L238.193 24.6113ZM240.719 28.3446C241.786 29.4121 243.025 30.2537 244.422 30.867L246.03 27.2044C245.079 26.7865 244.256 26.2246 243.547 25.5162L240.719 28.3446ZM244.431 30.8705C245.891 31.5039 247.657 31.842 249.253 31.842V27.842C248.158 27.842 246.939 27.5986 246.022 27.2008L244.431 30.8705ZM249.253 31.842C250.289 31.842 251.215 31.6312 251.977 31.4371L250.989 27.561C250.29 27.7392 249.765 27.842 249.253 27.842V31.842ZM255.368 26.7256V22.9818H251.368V26.7256H255.368ZM253.368 24.9818H256.298V20.9818H253.368V24.9818ZM256.298 24.9818H259.319V20.9818H256.298V24.9818ZM257.319 22.9818V27.6125H261.319V22.9818H257.319ZM257.323 27.4828L257.195 29.4512L261.187 29.7104L261.315 27.7421L257.323 27.4828ZM251.977 31.4371C254.346 30.8332 255.368 28.5636 255.368 26.7256H251.368C251.368 26.9989 251.291 27.2338 251.195 27.3833C251.108 27.5181 251.035 27.5493 250.989 27.561L251.977 31.4371ZM256.019 9.20288C255.975 9.29022 255.811 9.50277 255.248 9.69242C254.699 9.87752 253.996 9.95716 253.318 9.94406L253.241 13.9433C254.217 13.9622 255.409 13.859 256.525 13.4832C257.627 13.1119 258.9 12.3852 259.597 10.9917L256.019 9.20288ZM255.87 8.5096C256.088 8.72747 256.107 9.02708 256.019 9.20288L259.597 10.9917C260.503 9.17914 260.055 7.04019 258.702 5.68434L255.87 8.5096ZM258.208 35.2578C260.123 33.93 261.053 31.775 261.187 29.7104L257.195 29.4512C257.122 30.5708 256.636 31.4803 255.929 31.9707L258.208 35.2578Z" fill="white" mask="url(#path-9-outside-1_149_216)"/>
<path d="M60.7239 6.00151C62.104 2.91186 65.7274 1.52597 68.8171 2.90604C71.9067 4.28611 73.2926 7.90954 71.9125 10.9992L61.177 35.0336C59.7969 38.1232 56.1735 39.5091 53.0838 38.129C49.9942 36.749 48.6083 33.1255 49.9883 30.0359L60.7239 6.00151Z" fill="white"/>
<path d="M72.4516 5.66409C71.1198 2.55333 67.5184 1.11119 64.4076 2.443C61.2969 3.7748 59.8547 7.37622 61.1865 10.487L71.6314 34.8837C72.9632 37.9945 76.5646 39.4366 79.6754 38.1048C82.7862 36.773 84.2283 33.1716 82.8965 30.0608L72.4516 5.66409Z" fill="white"/>
<rect x="173.941" y="1.85706" width="11.0757" height="36.1395" rx="5.53786" transform="rotate(24.0691 173.941 1.85706)" fill="white" stroke="white" stroke-width="1.17835"/>
<rect x="-0.30974" y="0.773506" width="11.0757" height="36.1441" rx="5.53786" transform="matrix(-0.919293 0.393574 0.393574 0.919293 179.562 0.887488)" fill="white" stroke="white" stroke-width="1.17835"/>
<circle cx="131.923" cy="9.09642" r="7.62697" fill="#E91E1E" stroke="#193983" stroke-width="2.17913"/>
</svg>
