<svg width="12" height="20" viewBox="0 0 12 20" fill="none" xmlns="http://www.w3.org/2000/svg">
<path d="M0.609002 3.46309L7.39013 10.2442L0.609002 17.0254C0.447195 17.1872 0.318844 17.3793 0.231274 17.5907C0.143705 17.8021 0.0986328 18.0287 0.0986328 18.2575C0.0986328 18.4863 0.143705 18.7129 0.231274 18.9243C0.318844 19.1357 0.447195 19.3278 0.609002 19.4896C0.770808 19.6514 0.962901 19.7798 1.17431 19.8674C1.38572 19.9549 1.61231 20 1.84114 20C2.06997 20 2.29656 19.9549 2.50797 19.8674C2.71938 19.7798 2.91147 19.6514 3.07328 19.4896L11.0953 11.4676C11.7769 10.786 11.7769 9.68495 11.0953 9.00335L3.07328 0.98134C2.91159 0.819321 2.71954 0.690781 2.50811 0.603077C2.29668 0.515375 2.07004 0.47023 1.84114 0.47023C1.61224 0.47023 1.3856 0.515375 1.17417 0.603077C0.962743 0.690781 0.770689 0.819321 0.609002 0.98134C-0.0551297 1.66295 -0.0726068 2.78148 0.609002 3.46309Z" fill="#193983"/>
</svg>
