<svg width="64" height="64" viewBox="0 0 64 64" fill="none" xmlns="http://www.w3.org/2000/svg">
<path d="M32 0C40.4869 0 48.6263 3.37142 54.6274 9.37258C60.6286 15.3737 64 23.5131 64 32C64 40.4869 60.6286 48.6263 54.6274 54.6274C48.6263 60.6286 40.4869 64 32 64C23.5131 64 15.3737 60.6286 9.37258 54.6274C3.37142 48.6263 0 40.4869 0 32C0 23.5131 3.37142 15.3737 9.37258 9.37258C15.3737 3.37142 23.5131 0 32 0V0ZM32 28.1189L24.5669 20.6857C24.0522 20.171 23.3541 19.8819 22.6263 19.8819C21.8984 19.8819 21.2004 20.171 20.6857 20.6857C20.171 21.2004 19.8819 21.8984 19.8819 22.6263C19.8819 23.3541 20.171 24.0522 20.6857 24.5669L28.1189 32L20.6857 39.4331C20.4309 39.688 20.2287 39.9905 20.0908 40.3235C19.9529 40.6565 19.8819 41.0133 19.8819 41.3737C19.8819 41.7341 19.9529 42.091 20.0908 42.4239C20.2287 42.7569 20.4309 43.0594 20.6857 43.3143C20.9406 43.5691 21.2431 43.7713 21.5761 43.9092C21.909 44.0471 22.2659 44.1181 22.6263 44.1181C22.9867 44.1181 23.3436 44.0471 23.6765 43.9092C24.0095 43.7713 24.312 43.5691 24.5669 43.3143L32 35.8811L39.4331 43.3143C39.688 43.5691 39.9905 43.7713 40.3235 43.9092C40.6565 44.0471 41.0133 44.1181 41.3737 44.1181C41.7341 44.1181 42.091 44.0471 42.4239 43.9092C42.7569 43.7713 43.0594 43.5691 43.3143 43.3143C43.5691 43.0594 43.7713 42.7569 43.9092 42.4239C44.0471 42.091 44.1181 41.7341 44.1181 41.3737C44.1181 41.0133 44.0471 40.6565 43.9092 40.3235C43.7713 39.9905 43.5691 39.688 43.3143 39.4331L35.8811 32L43.3143 24.5669C43.5691 24.312 43.7713 24.0095 43.9092 23.6765C44.0471 23.3436 44.1181 22.9867 44.1181 22.6263C44.1181 22.2659 44.0471 21.909 43.9092 21.5761C43.7713 21.2431 43.5691 20.9406 43.3143 20.6857C43.0594 20.4309 42.7569 20.2287 42.4239 20.0908C42.091 19.9529 41.7341 19.8819 41.3737 19.8819C41.0133 19.8819 40.6565 19.9529 40.3235 20.0908C39.9905 20.2287 39.688 20.4309 39.4331 20.6857L32 28.1189Z" fill="#193983"/>
</svg>
