<svg width="40" height="40" viewBox="0 0 40 40" fill="none" xmlns="http://www.w3.org/2000/svg">
<path d="M20 0C25.3043 0 30.3914 2.10714 34.1421 5.85786C37.8929 9.60859 40 14.6957 40 20C40 25.3043 37.8929 30.3914 34.1421 34.1421C30.3914 37.8929 25.3043 40 20 40C14.6957 40 9.60859 37.8929 5.85786 34.1421C2.10714 30.3914 0 25.3043 0 20C0 14.6957 2.10714 9.60859 5.85786 5.85786C9.60859 2.10714 14.6957 0 20 0ZM20 17.5743L15.3543 12.9286C15.0326 12.6069 14.5963 12.4262 14.1414 12.4262C13.6865 12.4262 13.2502 12.6069 12.9286 12.9286C12.6069 13.2502 12.4262 13.6865 12.4262 14.1414C12.4262 14.5963 12.6069 15.0326 12.9286 15.3543L17.5743 20L12.9286 24.6457C12.7693 24.805 12.643 24.9941 12.5568 25.2022C12.4706 25.4103 12.4262 25.6333 12.4262 25.8586C12.4262 26.0838 12.4706 26.3069 12.5568 26.515C12.643 26.7231 12.7693 26.9122 12.9286 27.0714C13.0878 27.2307 13.2769 27.357 13.485 27.4432C13.6931 27.5294 13.9162 27.5738 14.1414 27.5738C14.3667 27.5738 14.5897 27.5294 14.7978 27.4432C15.0059 27.357 15.195 27.2307 15.3543 27.0714L20 22.4257L24.6457 27.0714C24.805 27.2307 24.9941 27.357 25.2022 27.4432C25.4103 27.5294 25.6333 27.5738 25.8586 27.5738C26.0838 27.5738 26.3069 27.5294 26.515 27.4432C26.7231 27.357 26.9122 27.2307 27.0714 27.0714C27.2307 26.9122 27.357 26.7231 27.4432 26.515C27.5294 26.3069 27.5738 26.0838 27.5738 25.8586C27.5738 25.6333 27.5294 25.4103 27.4432 25.2022C27.357 24.9941 27.2307 24.805 27.0714 24.6457L22.4257 20L27.0714 15.3543C27.2307 15.195 27.357 15.0059 27.4432 14.7978C27.5294 14.5897 27.5738 14.3667 27.5738 14.1414C27.5738 13.9162 27.5294 13.6931 27.4432 13.485C27.357 13.2769 27.2307 13.0878 27.0714 12.9286C26.9122 12.7693 26.7231 12.643 26.515 12.5568C26.3069 12.4706 26.0838 12.4262 25.8586 12.4262C25.6333 12.4262 25.4103 12.4706 25.2022 12.5568C24.9941 12.643 24.805 12.7693 24.6457 12.9286L20 17.5743Z" fill="white"/>
</svg>
