<svg width="64" height="64" viewBox="0 0 64 64" fill="none" xmlns="http://www.w3.org/2000/svg">
<path fill-rule="evenodd" clip-rule="evenodd" d="M32 64C49.6731 64 64 49.6731 64 32C64 14.3269 49.6731 0 32 0C14.3269 0 0 14.3269 0 32C0 49.6731 14.3269 64 32 64ZM42.6178 27.3746L41.4507 34.9772L35.3223 34.9786V53.3583H27.104V34.9786H20.4256V27.3759H27.104V21.5811C27.104 14.9893 31.0307 11.3475 37.0382 11.3475C39.916 11.3475 42.925 11.8608 42.925 11.8608V18.3331H39.6087C36.3411 18.3331 35.3223 20.3614 35.3223 22.441V27.3746H42.6178Z" fill="white"/>
</svg>
