<svg width="64" height="64" viewBox="0 0 64 64" fill="none" xmlns="http://www.w3.org/2000/svg">
<path fill-rule="evenodd" clip-rule="evenodd" d="M32 64C49.6731 64 64 49.6731 64 32C64 14.3269 49.6731 0 32 0C14.3269 0 0 14.3269 0 32C0 49.6731 14.3269 64 32 64ZM40.0201 13.239C38.0521 13.1467 37.4263 13.1282 32.4103 13.1282C27.3943 13.1282 26.7684 13.1522 24.8004 13.239C22.8324 13.3313 21.4958 13.6396 20.318 14.0974C19.0855 14.5603 17.969 15.2868 17.0466 16.226C16.1065 17.1479 15.3799 18.2645 14.918 19.4974C14.4601 20.6753 14.1518 22.0119 14.0595 23.9799C13.9672 25.9479 13.9487 26.5737 13.9487 31.5897C13.9487 36.6057 13.9727 37.2316 14.0595 39.1996C14.1518 41.1657 14.4601 42.506 14.918 43.682C15.3812 44.9143 16.1076 46.0307 17.0466 46.9534C17.9688 47.893 19.0853 48.6195 20.318 49.082C21.4958 49.538 22.8343 49.8482 24.8004 49.9405C26.7684 50.0328 27.3943 50.0513 32.4103 50.0513C37.4263 50.0513 38.0521 50.0273 40.0201 49.9405C41.9863 49.8482 43.3266 49.538 44.5026 49.082C45.7345 48.6182 46.8508 47.8919 47.774 46.9534C48.7139 46.0315 49.4404 44.9149 49.9026 43.682C50.3586 42.5042 50.6687 41.1657 50.761 39.1996C50.8533 37.2316 50.8718 36.6057 50.8718 31.5897C50.8718 26.5737 50.8478 25.9479 50.761 23.9799C50.6687 22.0137 50.3586 20.6734 49.9026 19.4974C49.4391 18.2653 48.7127 17.1489 47.774 16.226C46.7475 15.2014 45.721 14.5664 44.5026 14.0974C43.3247 13.6396 41.9863 13.3313 40.0201 13.239ZM25.8831 25.0626C27.6142 23.3315 29.9621 22.359 32.4103 22.359C34.8584 22.359 37.2063 23.3315 38.9374 25.0626C40.6685 26.7937 41.641 29.1416 41.641 31.5897C41.641 34.0379 40.6685 36.3858 38.9374 38.1169C37.2063 39.848 34.8584 40.8205 32.4103 40.8205C29.9621 40.8205 27.6142 39.848 25.8831 38.1169C24.152 36.3858 23.1795 34.0379 23.1795 31.5897C23.1795 29.1416 24.152 26.7937 25.8831 25.0626ZM43.7344 20.2656C44.1671 20.6984 44.4103 21.2854 44.4103 21.8974C44.4103 22.5095 44.1671 23.0964 43.7344 23.5292C43.3016 23.962 42.7146 24.2051 42.1026 24.2051C41.4905 24.2051 40.9036 23.962 40.4708 23.5292C40.038 23.0964 39.7949 22.5095 39.7949 21.8974C39.7949 21.2854 40.038 20.6984 40.4708 20.2656C40.9036 19.8329 41.4905 19.5897 42.1026 19.5897C42.7146 19.5897 43.3016 19.8329 43.7344 20.2656ZM36.3266 27.6735C35.2879 26.6348 33.8792 26.0513 32.4103 26.0513C30.9414 26.0513 29.5326 26.6348 28.494 27.6735C27.4553 28.7121 26.8718 30.1208 26.8718 31.5897C26.8718 33.0586 27.4553 34.4674 28.494 35.506C29.5326 36.5447 30.9414 37.1282 32.4103 37.1282C33.8792 37.1282 35.2879 36.5447 36.3266 35.506C37.3652 34.4674 37.9487 33.0586 37.9487 31.5897C37.9487 30.1208 37.3652 28.7121 36.3266 27.6735Z" fill="white"/>
</svg>
