<svg width="24" height="18" viewBox="0 0 24 18" fill="none" xmlns="http://www.w3.org/2000/svg">
<path d="M22.9714 6.85714H1.02857C0.0822856 6.85714 0 7.62343 0 8.57143C0 9.51943 0.0822856 10.2857 1.02857 10.2857H22.9714C23.9177 10.2857 24 9.51943 24 8.57143C24 7.62343 23.9177 6.85714 22.9714 6.85714ZM22.9714 13.7143H1.02857C0.0822856 13.7143 0 14.4806 0 15.4286C0 16.3766 0.0822856 17.1429 1.02857 17.1429H22.9714C23.9177 17.1429 24 16.3766 24 15.4286C24 14.4806 23.9177 13.7143 22.9714 13.7143ZM1.02857 3.42857H22.9714C23.9177 3.42857 24 2.66229 24 1.71429C24 0.766286 23.9177 0 22.9714 0H1.02857C0.0822856 0 0 0.766286 0 1.71429C0 2.66229 0.0822856 3.42857 1.02857 3.42857Z" fill="white"/>
</svg>
