<svg width="64" height="64" viewBox="0 0 64 64" fill="none" xmlns="http://www.w3.org/2000/svg">
<path fill-rule="evenodd" clip-rule="evenodd" d="M32 64C49.6731 64 64 49.6731 64 32C64 14.3269 49.6731 3.05176e-05 32 3.05176e-05C14.3269 3.05176e-05 0 14.3269 0 32C0 49.6731 14.3269 64 32 64ZM22.5655 16.7101C31.3106 11.4169 42.5872 13.9484 48.1105 22.4634C53.4036 31.2086 50.8721 42.4852 42.3571 48.0084C39.3653 49.8495 35.9133 50.77 32.4613 50.77C29.2394 50.77 26.0175 49.8495 23.0257 48.2386L22.3353 47.7783L15.4313 49.6194L17.2724 42.7153L16.8121 42.0249C11.2889 33.5099 14.0505 22.0032 22.5655 16.7101ZM39.5955 42.7153C41.2064 42.4852 42.3571 41.5646 43.2776 40.1838C43.7379 39.4934 43.7379 38.5729 43.5078 37.8825C43.2776 37.6523 42.8174 37.4222 42.3571 37.1921L38.6749 35.351C38.2147 35.1209 37.9845 35.1209 37.5243 35.5811C37.064 36.0414 35.9133 37.1921 35.6832 37.6523C35.453 38.1126 34.9928 38.1126 34.5325 37.8825C32.9216 37.1921 31.5407 36.2715 30.1599 35.1209C29.0093 33.9702 27.8586 32.5894 26.938 31.2086C26.7079 30.7483 26.938 30.288 27.3983 30.0579C27.5134 29.9428 27.6285 29.7702 27.7435 29.5976C27.8586 29.425 27.9737 29.2524 28.0887 29.1373C28.3189 28.9072 28.549 28.4469 28.3189 27.9867C28.549 27.7565 28.549 27.2963 28.3189 27.0661C28.3189 26.8877 27.6273 25.1879 27.102 23.8966C26.9497 23.5223 26.8114 23.1823 26.7079 22.9237C26.4778 22.0032 26.0175 22.0032 25.5572 22.0032H24.4066C23.9463 22.0032 23.486 22.2333 23.0257 22.6936C21.8751 23.8442 21.1847 25.4552 21.1847 27.2963C21.4148 29.3675 22.1052 31.4387 23.486 33.0496C25.7874 36.5017 29.0093 39.4934 32.9216 41.3345C36.8415 42.9025 38.2576 42.8012 39.1601 42.7367C39.3173 42.7254 39.4589 42.7153 39.5955 42.7153Z" fill="white"/>
</svg>
